<?xml version="1.0" standalone="no"?><!DOCTYPE svg PUBLIC "-//W3C//DTD SVG 1.1//EN" "http://www.w3.org/Graphics/SVG/1.1/DTD/svg11.dtd"><svg t="1681923012973" class="icon" viewBox="0 0 1024 1024" version="1.1" xmlns="http://www.w3.org/2000/svg" p-id="1006" data-spm-anchor-id="a313x.7781069.0.i0" xmlns:xlink="http://www.w3.org/1999/xlink" width="200" height="200"><path d="M933.7856 135.3216a69.0176 69.0176 0 0 0-67.3792-24.2176L130.7136 259.072A69.2224 69.2224 0 0 0 107.52 385.3312l296.96 188.7232L522.24 885.76a68.7616 68.7616 0 0 0 63.1808 44.7488h1.5872a68.9152 68.9152 0 0 0 63.5392-41.8816L943.616 206.2336a69.0176 69.0176 0 0 0-9.8304-70.912z m-793.6 198.144a7.7312 7.7312 0 0 1 2.6112-14.1312L831.5904 180.736 429.056 517.12z m453.9904 531.0464a6.9632 6.9632 0 0 1-7.3216 4.7104 7.168 7.168 0 0 1-7.0656-5.12l-112.896-298.8032 398.592-332.8z" fill="#00A0E9" p-id="1007"></path></svg>